<svg width="144" height="200" viewBox="0 0 1000 1000" fill="none" xmlns="http://www.w3.org/2000/svg">
<rect width="1000" height="1000" fill="transparent"/>
<g clip-path="url(#clip0_0_508)">
<path d="M245.069 473.283H301.264V519.513H322.664V405.163H301.264V453.353H245.069V405.163H223.506V519.513H245.069V473.283Z" fill="#FF963C"/>
<path fill-rule="evenodd" clip-rule="evenodd" d="M381.728 521.474C393.979 521.474 407.865 517.225 416.359 508.405L403.617 495.826C399.043 500.564 389.405 503.34 382.054 503.34C368.006 503.34 359.348 496.153 358.041 486.188H420.933C424.037 453.027 407.211 436.364 380.257 436.364C354.12 436.364 337.458 454.007 337.458 478.51C337.458 504.321 353.957 521.474 381.728 521.474ZM380.911 454.007C392.346 454.007 400.514 459.234 401.821 469.689H358.368C361.308 459.234 370.129 454.007 380.911 454.007Z" fill="#FF963C"/>
<path fill-rule="evenodd" clip-rule="evenodd" d="M475.69 521.8C484.674 521.637 497.253 517.062 501.827 507.588L502.807 519.35H521.593V438.815H502.48L501.827 449.923C497.253 441.919 486.962 436.854 476.18 436.854C452.657 436.691 434.197 451.23 434.197 479.001C434.197 507.261 451.84 521.963 475.69 521.8H475.69ZM477.976 454.661C509.341 454.661 509.341 503.504 477.976 503.504C464.745 503.504 454.127 494.356 454.127 479.001C454.127 463.645 464.745 454.661 477.976 454.661Z" fill="#FF963C"/>
<rect x="538.281" y="405.163" width="19.7661" height="114.186" fill="#FF963C"/>
<path d="M663.294 478.184C663.294 466.095 671.461 456.13 683.223 456.13C693.841 456.13 701.519 462.338 701.519 477.04V519.35H721.448V476.877C721.448 453.19 711.32 437.671 688.45 437.671C679.302 437.671 670.481 440.448 663.294 449.76V405H643.364V519.35H663.294V478.184Z" fill="#FF963C"/>
<path d="M586.738 490.925C586.738 511.019 598.173 520.983 615.652 520.33C621.696 520.167 626.433 519.186 632.151 516.899L626.597 499.911C623.657 501.381 620.062 502.36 616.959 502.36C610.751 502.36 606.504 498.603 606.504 490.925V456.131H628.884V438.978H606.667V419.339H586.738V438.978H571.709V456.131H586.738L586.738 490.925Z" fill="#FF963C"/>
<path d="M798.206 436.853L775.63 489.622L753.151 436.853H731.371L764.717 515.131L717.872 624.629L635.878 552.205L151 552.248V572.281L628.353 572.29L725.073 658L820 436.853H798.206Z" fill="#FF963C"/>
</g>
<defs>
<clipPath id="clip0_0_508">
<rect width="669" height="253" fill="white" transform="translate(151 405)"/>
</clipPath>
</defs>
</svg>
